<?xml version="1.0" standalone="no"?>
<!DOCTYPE svg PUBLIC "-//W3C//DTD SVG 20010904//EN"
 "http://www.w3.org/TR/2001/REC-SVG-20010904/DTD/svg10.dtd">
<svg version="1.0" xmlns="http://www.w3.org/2000/svg"
 width="2019.000000pt" height="507.000000pt" viewBox="0 0 2019.000000 507.000000"
 preserveAspectRatio="xMidYMid meet">
<metadata>
Created by potrace 1.10, written by Peter Selinger 2001-2011
</metadata>
<g transform="translate(0.000000,507.000000) scale(0.100000,-0.100000)"
fill="#000000" stroke="none">
<path d="M58 3388 c-2 -1079 0 -1636 7 -1643 7 -7 564 -9 1642 -7 l1633 2 0
1640 0 1640 -1640 0 -1640 0 -2 -1632z m1112 693 c6 -12 10 -118 10 -273 0
-139 4 -259 8 -266 7 -9 74 -12 303 -10 l294 3 5 270 c3 149 9 276 13 283 5 8
34 12 84 12 125 0 113 77 113 -721 l0 -688 -22 -15 c-31 -22 -151 -22 -172 0
-14 13 -16 56 -16 314 0 164 -3 305 -6 314 -5 14 -41 16 -295 16 -275 0 -289
-1 -299 -19 -6 -12 -10 -130 -10 -312 0 -347 6 -329 -106 -329 -77 0 -99 11
-109 53 -3 12 -4 322 -3 688 2 547 5 669 17 682 10 13 31 17 97 17 72 0 85 -3
94 -19z m1210 -79 c38 -28 51 -61 47 -115 -7 -82 -79 -132 -158 -108 -113 34
-123 189 -15 237 38 17 92 11 126 -14z m6 -446 c18 -14 19 -30 19 -441 0 -491
8 -455 -100 -455 -108 0 -100 -36 -100 455 0 411 1 427 19 441 26 19 136 19
162 0z"/>
<path d="M8730 4595 c0 -186 -5 -197 -62 -155 -27 20 -43 23 -129 23 -95 1
-99 0 -146 -32 -91 -62 -135 -167 -136 -321 -1 -152 27 -235 107 -315 44 -45
60 -54 100 -60 79 -12 165 0 218 30 50 28 68 26 68 -6 0 -18 6 -20 68 -17 l67
3 0 505 0 505 -77 3 -78 3 0 -166z m-42 -289 l37 -34 3 -157 c4 -175 -1 -199
-51 -236 -26 -20 -44 -24 -98 -24 -75 0 -92 10 -138 80 -24 38 -26 47 -25 166
l0 127 35 43 c50 64 57 68 132 69 63 0 70 -2 105 -34z"/>
<path d="M4167 4714 c-4 -4 -7 -225 -7 -491 l0 -484 73 3 72 3 3 207 c2 206 3
208 25 213 12 3 112 4 222 3 l200 -3 5 -210 5 -210 83 -3 82 -3 0 479 c0 358
-3 481 -12 490 -7 7 -39 12 -75 12 -51 0 -64 -3 -73 -19 -6 -12 -10 -96 -10
-204 l0 -184 -37 -7 c-50 -8 -351 -6 -383 3 l-25 7 -5 199 -5 200 -65 3 c-36
2 -69 0 -73 -4z"/>
<path d="M5390 4470 c-8 -5 -34 -10 -57 -10 -68 0 -143 -49 -196 -130 -20 -29
-22 -70 -4 -71 76 -6 130 0 139 15 31 56 54 70 121 74 66 4 67 4 107 -35 34
-34 40 -46 40 -81 0 -47 -2 -48 -105 -56 -195 -15 -259 -44 -310 -139 -26 -50
-33 -121 -16 -155 5 -9 13 -29 19 -43 6 -15 32 -44 58 -65 l47 -39 107 0 c101
0 110 2 146 27 l38 28 26 -25 c23 -22 35 -25 93 -25 77 0 88 10 63 59 -13 25
-16 71 -16 266 0 232 0 236 -25 285 -31 61 -89 101 -160 111 -27 4 -61 10 -75
14 -14 3 -32 1 -40 -5z m131 -400 c16 -9 19 -22 19 -74 0 -61 -1 -65 -39 -99
-66 -60 -163 -63 -213 -7 -62 68 -13 166 92 183 51 8 122 7 141 -3z"/>
<path d="M6185 4470 c-11 -5 -30 -9 -42 -9 -12 -1 -39 -12 -59 -26 -45 -31
-52 -31 -56 -2 -3 21 -8 22 -78 22 l-75 0 0 -355 0 -355 79 0 79 0 -2 222 c-2
244 4 288 46 319 35 25 115 48 143 41 24 -6 27 -1 33 66 4 40 1 52 -16 68 -23
21 -24 21 -52 9z"/>
<path d="M7330 4470 c-8 -5 -36 -10 -62 -10 -77 0 -167 -58 -201 -129 -22 -44
-22 -71 1 -72 9 0 37 -1 62 -3 42 -3 48 0 88 43 l42 46 75 0 c72 0 76 -1 99
-30 29 -35 43 -99 27 -119 -7 -8 -43 -16 -89 -20 -142 -11 -185 -21 -240 -55
-69 -43 -95 -92 -96 -181 0 -78 21 -120 87 -172 41 -33 42 -33 147 -33 94 0
108 2 134 23 36 28 76 29 83 2 5 -18 14 -20 77 -20 40 0 75 2 78 5 3 3 1 25
-4 48 -6 23 -13 152 -17 287 -5 218 -8 249 -25 275 -40 63 -94 97 -166 106
-30 3 -62 9 -70 12 -8 4 -22 2 -30 -3z m128 -402 c7 -7 12 -39 12 -72 0 -56
-2 -61 -40 -97 -44 -42 -87 -55 -153 -45 -55 8 -87 47 -87 103 1 56 51 106
116 116 62 9 140 7 152 -5z"/>
<path d="M8120 4470 c-8 -5 -29 -10 -46 -10 -20 0 -39 -10 -59 -30 -31 -32
-41 -31 -55 6 -9 22 -15 24 -74 24 -36 0 -67 -4 -71 -9 -4 -7 -8 -501 -5 -701
0 -7 29 -10 78 -8 l77 3 3 250 2 249 31 32 c30 31 109 58 154 52 18 -3 20 3
20 61 0 53 -3 66 -20 77 -13 9 -25 10 -35 4z"/>
<path d="M6320 4443 c0 -21 40 -145 52 -157 4 -6 8 -18 8 -28 0 -10 6 -29 14
-41 8 -12 17 -39 21 -61 6 -39 9 -46 38 -104 9 -19 17 -43 17 -54 0 -11 6 -32
14 -46 20 -38 46 -110 46 -128 0 -9 7 -31 16 -50 l17 -35 70 3 c70 3 71 3 78
33 3 17 18 56 33 87 14 31 26 66 26 77 0 10 6 32 14 48 29 56 46 101 46 122 0
11 6 35 14 53 8 18 21 49 30 70 9 20 16 46 16 58 0 12 7 35 15 51 8 16 22 43
31 60 26 50 15 59 -70 59 -84 0 -96 -9 -96 -72 0 -18 -7 -42 -15 -52 -8 -11
-15 -29 -15 -41 0 -12 -5 -26 -10 -31 -6 -6 -15 -33 -19 -60 -9 -47 -25 -102
-42 -135 -4 -9 -11 -33 -14 -53 -4 -20 -11 -39 -16 -42 -12 -7 -49 56 -49 83
0 21 -30 122 -50 168 -5 11 -12 39 -15 62 -4 24 -11 45 -16 49 -5 3 -9 14 -9
25 0 11 -9 38 -20 59 l-20 40 -70 0 c-59 0 -70 -3 -70 -17z"/>
<path d="M11005 3238 c-3 -7 -4 -240 -3 -518 l3 -505 70 0 70 0 3 498 c1 332
-1 504 -8 517 -9 17 -21 20 -71 20 -38 0 -61 -4 -64 -12z"/>
<path d="M12090 3230 c-7 -13 -9 -185 -8 -517 l3 -498 70 0 c62 0 70 2 73 20
7 37 20 38 70 6 46 -29 54 -31 143 -31 55 1 103 6 116 13 42 23 100 86 124
134 22 44 24 63 27 211 l3 163 -31 64 c-41 84 -93 127 -180 148 -50 13 -74 14
-105 6 -22 -6 -50 -13 -62 -16 -12 -3 -28 -11 -34 -19 -6 -8 -22 -14 -35 -14
l-24 0 6 138 c5 113 4 144 -9 175 -16 37 -16 37 -76 37 -50 0 -62 -3 -71 -20z
m409 -443 c45 -42 61 -99 61 -215 0 -122 -17 -172 -75 -216 -75 -58 -205 -19
-236 71 -7 21 -12 43 -10 48 2 6 5 69 8 140 5 129 5 130 36 162 52 55 161 60
216 10z"/>
<path d="M4161 3184 c-24 -26 -30 -41 -25 -57 23 -71 78 -94 139 -57 30 18 35
27 35 58 0 45 -9 59 -45 78 -44 23 -70 17 -104 -22z"/>
<path d="M8755 3208 c-29 -16 -35 -28 -35 -73 0 -76 79 -110 139 -59 43 36 39
95 -8 131 -20 15 -70 16 -96 1z"/>
<path d="M8302 3108 c-7 -7 -12 -40 -12 -78 0 -76 -9 -90 -60 -90 -44 0 -60
-15 -60 -56 0 -40 21 -63 53 -57 14 3 34 0 46 -6 20 -11 21 -18 21 -214 0
-267 7 -311 60 -360 l40 -38 93 3 92 3 0 55 0 55 -40 3 c-23 2 -49 12 -62 24
-23 21 -23 26 -23 244 l0 223 35 7 c19 3 42 4 50 1 22 -9 45 20 45 57 0 43
-14 54 -75 58 l-50 3 -3 65 c-4 111 -3 110 -75 110 -36 0 -68 -5 -75 -12z"/>
<path d="M4825 2953 c-55 -13 -110 -36 -140 -59 -35 -26 -38 -25 -49 19 -7 28
-8 28 -74 25 l-67 -3 0 -360 0 -360 70 0 70 0 5 261 c5 276 5 273 55 316 43
37 151 41 192 6 42 -34 48 -73 53 -333 l5 -250 70 0 70 0 3 264 c2 244 1 270
-18 326 -27 81 -67 119 -146 139 -64 17 -66 17 -99 9z"/>
<path d="M5559 2941 c-37 -10 -77 -28 -90 -39 -31 -29 -42 -28 -56 8 -11 29
-14 30 -72 30 -33 0 -63 -5 -66 -10 -10 -16 -7 -702 3 -712 5 -5 38 -8 73 -6
l64 3 5 263 5 263 33 34 c41 41 103 58 162 43 75 -19 75 -17 78 -321 2 -196 7
-274 15 -279 21 -13 147 -9 147 5 4 149 -3 564 -9 571 -4 6 -11 22 -14 36 -11
47 -61 90 -127 111 -73 23 -67 23 -151 0z"/>
<path d="M6255 2941 c-33 -9 -78 -28 -101 -43 -44 -29 -104 -97 -104 -120 0
-8 -5 -19 -12 -26 -28 -28 -40 -186 -21 -277 24 -114 80 -193 172 -239 47 -23
64 -26 157 -26 91 0 111 3 152 24 44 22 112 81 112 96 0 4 9 17 20 30 11 13
20 35 20 50 0 14 5 31 12 38 7 7 14 51 16 106 9 205 -77 342 -243 385 -90 24
-99 24 -180 2z m135 -121 c76 -21 140 -128 140 -233 0 -80 -30 -164 -76 -213
-40 -43 -42 -44 -105 -44 -85 0 -115 20 -161 105 -18 34 -21 56 -20 149 l1
110 38 55 c50 72 104 93 183 71z"/>
<path d="M7705 2942 c-107 -26 -192 -92 -210 -163 -9 -38 13 -51 82 -47 55 3
59 5 82 40 17 27 37 42 70 53 59 19 98 12 145 -27 35 -29 37 -33 34 -82 l-3
-51 -90 -7 c-49 -4 -108 -11 -130 -17 -22 -5 -52 -12 -66 -15 -15 -3 -48 -26
-74 -51 -40 -37 -50 -53 -58 -97 -17 -95 -8 -141 39 -193 60 -68 77 -75 190
-75 96 0 103 1 142 30 l42 30 22 -30 c20 -28 26 -30 90 -30 51 0 70 4 74 15 3
8 -1 50 -10 93 -11 56 -16 135 -16 276 0 174 -2 200 -19 232 -27 50 -78 92
-125 105 -23 5 -54 14 -70 19 -37 13 -56 12 -141 -8z m186 -382 c16 -9 19 -22
19 -84 0 -78 -6 -88 -72 -129 -42 -26 -136 -22 -171 7 -24 19 -28 30 -29 76 0
42 5 57 24 76 49 48 181 79 229 54z"/>
<path d="M9285 2941 c-71 -20 -138 -60 -162 -98 -10 -16 -23 -32 -30 -36 -7
-4 -13 -14 -13 -22 0 -8 -6 -29 -14 -47 -28 -67 -35 -140 -21 -232 7 -48 18
-93 24 -99 6 -6 11 -19 11 -29 0 -28 87 -115 142 -143 43 -22 63 -25 155 -25
90 0 113 3 151 22 49 25 122 93 122 114 0 8 4 14 9 14 21 0 51 127 51 216 0
137 -40 232 -130 311 -64 56 -199 80 -295 54z m148 -125 c78 -33 127 -124 127
-234 -1 -92 -28 -167 -79 -214 -38 -36 -44 -38 -105 -38 -58 0 -69 3 -100 30
-59 52 -76 101 -76 216 0 104 11 143 59 204 35 45 115 61 174 36z"/>
<path d="M10155 2943 c-33 -9 -74 -26 -91 -39 -37 -29 -54 -30 -54 -5 0 31
-24 42 -87 39 l-58 -3 0 -360 0 -360 70 0 70 0 5 263 5 263 33 34 c57 58 171
66 217 15 26 -29 36 -120 35 -344 -1 -121 3 -223 8 -228 5 -5 40 -8 78 -6 l69
3 0 287 c0 216 -3 290 -12 300 -7 6 -13 20 -13 30 0 34 -71 94 -132 112 -66
19 -66 19 -143 -1z"/>
<path d="M11540 2941 c-71 -17 -116 -38 -149 -69 -23 -23 -61 -82 -61 -97 0
-38 11 -45 75 -45 62 0 64 1 86 36 55 90 194 92 240 3 10 -21 19 -54 19 -74
l0 -35 -67 0 c-38 0 -107 -9 -155 -19 -144 -30 -215 -101 -217 -217 -2 -80 39
-147 117 -196 28 -17 46 -19 135 -16 94 3 107 5 139 30 35 27 58 24 58 -8 0
-6 7 -15 16 -18 25 -9 142 -7 148 3 4 5 -1 35 -9 67 -11 43 -15 114 -15 277 0
250 -3 262 -77 326 -43 36 -75 48 -178 65 -16 2 -64 -4 -105 -13z m192 -388
c25 -23 25 -117 -1 -156 -27 -42 -82 -67 -145 -67 -50 0 -57 3 -86 37 -29 33
-32 40 -26 82 7 53 40 86 96 97 19 4 42 10 50 15 26 14 92 10 112 -8z"/>
<path d="M13033 2938 c-138 -41 -209 -169 -154 -277 21 -40 79 -91 105 -91 8
0 17 -4 20 -9 7 -11 88 -37 146 -46 48 -8 84 -28 112 -60 23 -26 22 -47 -3
-89 -18 -31 -26 -35 -74 -41 -97 -13 -152 10 -185 75 l-20 40 -69 0 c-80 0
-91 -11 -64 -68 28 -60 55 -91 108 -125 48 -30 55 -32 176 -35 149 -5 173 3
250 80 l49 49 0 74 c0 71 -2 77 -34 113 -19 21 -50 46 -68 54 -68 33 -107 48
-127 48 -12 0 -38 7 -58 15 -19 8 -43 15 -52 15 -25 0 -81 59 -81 84 1 42 71
96 125 96 43 0 104 -38 122 -75 16 -33 18 -34 86 -37 38 -2 74 0 79 3 7 4 8
22 4 45 -6 28 -23 52 -65 93 -53 52 -62 57 -136 73 -92 20 -112 19 -192 -4z"/>
<path d="M4158 2929 c-17 -9 -18 -37 -18 -358 0 -309 2 -350 16 -355 25 -10
132 -7 139 4 8 12 8 697 0 710 -8 13 -115 12 -137 -1z"/>
<path d="M6777 2934 c-12 -12 -8 -68 8 -98 8 -15 15 -32 15 -36 0 -5 5 -21 12
-37 6 -15 17 -46 23 -68 13 -43 60 -177 74 -210 5 -11 16 -37 25 -58 9 -21 16
-48 16 -60 0 -12 7 -35 15 -51 8 -15 15 -34 15 -41 0 -7 9 -24 21 -39 19 -24
27 -27 78 -24 l56 3 27 55 c15 30 28 65 28 76 0 12 7 35 15 50 8 16 15 36 15
45 0 8 4 19 9 25 6 5 14 27 20 49 5 22 19 65 31 95 12 30 24 66 27 80 2 14 17
57 32 95 45 112 50 132 38 144 -15 15 -132 14 -144 -1 -13 -18 -43 -116 -43
-142 0 -12 -4 -26 -9 -32 -11 -12 -51 -142 -51 -168 -1 -12 -7 -32 -15 -46 -8
-14 -14 -37 -15 -52 0 -35 -11 -41 -38 -22 -13 9 -22 26 -22 42 0 15 -7 40
-15 56 -8 15 -15 39 -15 53 0 14 -6 39 -13 56 -22 52 -47 133 -47 153 0 11
-10 39 -23 64 l-22 45 -60 3 c-34 2 -64 0 -68 -4z"/>
<path d="M8725 2918 c-3 -13 -4 -176 -3 -363 l3 -340 75 0 75 0 3 349 c2 249
-1 353 -9 362 -8 9 -33 14 -75 14 -58 0 -64 -2 -69 -22z"/>
</g>
</svg>
